<?xml version="1.0" standalone="no"?>
<!DOCTYPE svg PUBLIC "-//W3C//DTD SVG 20010904//EN"
 "http://www.w3.org/TR/2001/REC-SVG-20010904/DTD/svg10.dtd">
<svg version="1.0" xmlns="http://www.w3.org/2000/svg"
 width="50.000000pt" height="50.000000pt" viewBox="0 0 50.000000 50.000000"
 preserveAspectRatio="xMidYMid meet">

<g transform="translate(0.000000,50.000000) scale(0.100000,-0.100000)"
fill="#000000" stroke="none">
<path d="M37 412 c-22 -24 -21 -35 1 -55 28 -26 222 -25 245 1 22 24 21 35 -1
55 -28 26 -222 25 -245 -1z m123 -27 l0 -36 -56 3 c-40 2 -60 8 -67 20 -19 29
9 48 69 48 l54 0 0 -35z m121 19 c23 -27 -1 -49 -60 -52 l-51 -3 0 35 0 36 49
0 c32 0 53 -5 62 -16z"/>
<path d="M335 410 c-17 -19 -17 -21 0 -40 21 -23 44 -28 25 -5 -11 13 -8 15
19 15 l31 0 0 -106 c0 -67 4 -103 10 -99 6 3 10 52 10 111 l0 104 -40 0 c-41
0 -49 7 -28 28 7 7 8 12 2 12 -6 0 -19 -9 -29 -20z"/>
<path d="M72 213 l3 -108 37 -3 c30 -3 36 -6 31 -20 -5 -12 1 -10 20 7 l27 25
-21 22 c-23 25 -48 22 -28 -2 9 -12 6 -14 -20 -14 l-31 0 0 100 c0 62 -4 100
-10 100 -7 0 -10 -38 -8 -107z"/>
<path d="M217 142 c-22 -24 -21 -35 1 -55 28 -26 222 -25 245 1 22 24 21 35
-1 55 -28 26 -222 25 -245 -1z m123 -27 l0 -36 -56 3 c-40 2 -60 8 -67 20 -19
29 9 48 69 48 l54 0 0 -35z m121 19 c23 -27 -1 -49 -60 -52 l-51 -3 0 35 0 36
49 0 c32 0 53 -5 62 -16z"/>
</g>
</svg>
